<?xml version="1.0" encoding="utf-8"?>
<!-- Generator: Adobe Illustrator 25.2.3, SVG Export Plug-In . SVG Version: 6.00 Build 0)  -->
<svg version="1.1" id="Layer_1" xmlns="http://www.w3.org/2000/svg" xmlns:xlink="http://www.w3.org/1999/xlink" x="0px" y="0px"
	 viewBox="0 0 16.2 24.6" style="enable-background:new 0 0 16.2 24.6;" xml:space="preserve">
<style type="text/css">
	.st0{fill:#EF233C;}
</style>
<g transform="translate(-1501.379 -2167)">
	<g>
		<path class="st0" d="M1516.6,2184.6l-6,6c-0.3,0.3-0.7,0.4-1.1,0.4s-0.8-0.1-1.1-0.4l-6-6c-0.6-0.6-0.6-1.5,0-2.1
			c0.6-0.6,1.5-0.6,2.1,0l3.4,3.4v-17.4c0-0.8,0.7-1.5,1.5-1.5c0.8,0,1.5,0.7,1.5,1.5v17.4l3.4-3.4c0.6-0.6,1.5-0.6,2.1,0
			C1517.1,2183,1517.1,2184,1516.6,2184.6z"/>
	</g>
</g>
</svg>
