<svg xmlns="http://www.w3.org/2000/svg" xmlns:xlink="http://www.w3.org/1999/xlink" width="130" height="41.704" viewBox="0 0 130 41.704"><defs><clipPath id="a"><rect width="130" height="41.704" transform="translate(0)"/></clipPath></defs><g transform="translate(-183 -223.6)"><g transform="translate(183 223.6)" clip-path="url(#a)"><path d="M360,290.213a10.077,10.077,0,0,1,4.03-5.083,4.182,4.182,0,0,1,3.952.221c.221.117.2.247-.013.39-3.692,2.587-5.473,6.565-6.565,10.1a19.328,19.328,0,0,0-1.4-5.629" transform="translate(-336.99 -276.771)" fill="#fff"/></g><g transform="translate(183 223.6)" clip-path="url(#a)"><path d="M370.891,326.158c3.068-5.3,8.242-8.567,11.336-8.125A3.961,3.961,0,0,1,385,320.178c.117.221.039.325-.208.338a10.612,10.612,0,0,0-3.367.754l-1.807-1.248.767,1.69a18.829,18.829,0,0,0-2.613,1.534l-2-.988,1.1,1.638a38.737,38.737,0,0,0-4.771,4.394,1.243,1.243,0,0,1-1.3.312,17.144,17.144,0,0,0,.091-2.444" transform="translate(-346.386 -305.722)" fill="#fff"/></g><g transform="translate(183 223.6)" clip-path="url(#a)"><path d="M206.01,253.266c-.013-.338.286-.65.767-.988,1.6-1.079,2.808-1.521,3.575-.741a1.238,1.238,0,0,0,.91.351,53.47,53.47,0,0,1,6.045-.221l.091-1.95.988,2.028a13.732,13.732,0,0,1,2.821.52l.455-1.9.637,2.3a5.581,5.581,0,0,1,1.755,1.248c.169.195.286.156.4-.078a3.5,3.5,0,0,0,.273-2.574c-1.222-3.3-12.415-4.953-18.343.884a10.624,10.624,0,0,1,.507-1.2c1.079-2.119,2.652-3.523,3.809-2.7a.866.866,0,0,0,.871.026c1.365-.559,3.068-1.287,4.862-1.846l-.3-1.937,1.339,1.638a16.585,16.585,0,0,1,3.341-.546l-.156-1.976,1.3,1.989a7.517,7.517,0,0,1,2.821.7c.221.117.338.039.338-.221a3.626,3.626,0,0,0-1.053-2.847c-2.951-2.626-13.065-.858-17.29,7.007a12.34,12.34,0,0,0-.9,2.613c-1.4-.936-3.263-2.158-4.251-1.313a1.262,1.262,0,0,1-.91.351,55.063,55.063,0,0,0-5.954-.221l-.091-1.937-1.014,2a14.153,14.153,0,0,0-2.847.494l-.442-1.846-.624,2.236a5.5,5.5,0,0,0-1.859,1.3c-.169.182-.286.156-.4-.078a3.515,3.515,0,0,1-.273-2.574c1.183-3.211,10.894-5.265,18.434.988-.429-1.1-3.159-4.641-4.485-3.8a.952.952,0,0,1-.858.026c-1.365-.572-3.055-1.3-4.849-1.859l.3-1.937-1.339,1.638a16.4,16.4,0,0,0-3.328-.546l.156-1.976-1.3,1.976a7.3,7.3,0,0,0-2.834.715c-.221.1-.338.039-.338-.208a3.625,3.625,0,0,1,1.053-2.847c2.821-2.522,13.624-.312,18.018,8.307-.078-2.626-1.482-6.071-2.652-5.694a.668.668,0,0,1-.7-.286c-2.678-2.886-6.773-7.137-11.869-7.371-.247-.013-.325-.117-.208-.338a3.9,3.9,0,0,1,2.769-2.145c4.134-.6,10.8,5.1,12.831,13.416,1.04-1.911.637-4.2-.481-4.537a.612.612,0,0,1-.455-.494,40.075,40.075,0,0,0-1.911-5.382l1.508-.975h-1.989a15.644,15.644,0,0,0-1.495-2.327l1.443-1.235-2.171.351a15.752,15.752,0,0,0-2.418-2.158c-.208-.143-.234-.273-.013-.39a4.219,4.219,0,0,1,3.952-.221,10.213,10.213,0,0,1,4.03,5.083V223.6c-12.714,0-23.01,9.334-23.01,20.852S193.3,265.3,206.01,265.3Z" transform="translate(-183 -223.6)" fill="#fff"/></g><g transform="translate(183 223.6)" clip-path="url(#a)"><path d="M673.7,295.712h-4.693v8.7h-8.788v-8.7h-4.693v22.165h4.693v-9.568h8.788v9.568H673.7Zm-21.775,13.1a6.277,6.277,0,0,0-1.846-2.054,18.381,18.381,0,0,0-2.9-1.677,29.054,29.054,0,0,1-3.133-1.677A2.117,2.117,0,0,1,643,301.549a2.021,2.021,0,0,1,.715-1.612,3.031,3.031,0,0,1,2.054-.624,9.376,9.376,0,0,1,2.483.338,27.13,27.13,0,0,1,2.73.962l1.521-3.666a22.668,22.668,0,0,0-3.289-1.144,12.881,12.881,0,0,0-3.289-.4,8.437,8.437,0,0,0-5.5,1.664,5.65,5.65,0,0,0-2.015,4.641,5.966,5.966,0,0,0,.533,2.613,6.113,6.113,0,0,0,1.352,1.846,8.835,8.835,0,0,0,1.729,1.274c.6.338,1.157.637,1.677.884.832.39,1.56.754,2.21,1.105a5.831,5.831,0,0,1,1.534,1.105,1.993,1.993,0,0,1,.572,1.43,2.212,2.212,0,0,1-.728,1.69,3.649,3.649,0,0,1-2.47.663,10.588,10.588,0,0,1-3.367-.572c-1.131-.377-2.223-.806-3.276-1.261v4.381a14.166,14.166,0,0,0,6.266,1.339,9.217,9.217,0,0,0,6.032-1.755,5.8,5.8,0,0,0,2.132-4.706,6.392,6.392,0,0,0-.676-2.925m-22.7-3.289,7.735-9.815h-5.213l-5.993,7.54-.936,1.3c-.312.442-.624.871-.936,1.3V295.7h-4.693v22.165h4.693v-7.917l1.989-1.43,5.811,9.347h5.343ZM604.321,314h-2.015V299.56h2.509a6.1,6.1,0,0,1,4.693,1.742c1.079,1.157,1.612,2.964,1.612,5.395,0,4.875-2.275,7.306-6.8,7.306m10.257-13.377a9.126,9.126,0,0,0-3.978-3.666,13.636,13.636,0,0,0-6.045-1.235H597.6V317.89h6.266q5.714,0,8.918-2.847t3.2-8.463a11.567,11.567,0,0,0-1.4-5.954" transform="translate(-543.702 -286.066)" fill="#fff"/></g></g></svg>