<?xml version="1.0" encoding="utf-8"?>
<!-- Generator: Adobe Illustrator 25.2.3, SVG Export Plug-In . SVG Version: 6.00 Build 0)  -->
<svg version="1.1" id="Layer_1" xmlns="http://www.w3.org/2000/svg" xmlns:xlink="http://www.w3.org/1999/xlink" x="0px" y="0px"
	 viewBox="0 0 55 55" style="enable-background:new 0 0 55 55;" xml:space="preserve">
<style type="text/css">
	.st0{fill:none;}
	.st1{fill:#EF233C;}
</style>
<g>
	<rect y="0" class="st0" width="55" height="55"/>
</g>
<g>
	<path class="st1" d="M44.7,30.7c-0.8,0-1.5-0.7-1.5-1.5v-8L32,10.1H12c-0.1,0-0.2,0.1-0.2,0.2v18.9c0,0.8-0.7,1.5-1.5,1.5
		S8.8,30,8.8,29.2V10.3c0-1.8,1.4-3.2,3.2-3.2h20.6c0.4,0,0.8,0.2,1.1,0.4l12,12c0.3,0.3,0.4,0.7,0.4,1.1v8.6
		C46.2,30,45.5,30.7,44.7,30.7z"/>
</g>
<g>
	<path class="st1" d="M44.7,22.1h-12c-0.8,0-1.5-0.7-1.5-1.5v-12c0-0.8,0.7-1.5,1.5-1.5s1.5,0.7,1.5,1.5v10.5h10.5
		c0.8,0,1.5,0.7,1.5,1.5S45.5,22.1,44.7,22.1z"/>
</g>
<g>
	<path class="st1" d="M10.3,47.9c-0.8,0-1.5-0.7-1.5-1.5V36.1c0-0.8,0.7-1.5,1.5-1.5h3.4c2.7,0,4.8,2.2,4.9,4.9
		c0,1.3-0.5,2.6-1.4,3.5c-0.9,0.9-2.1,1.5-3.5,1.5h-2v1.9C11.8,47.2,11.1,47.9,10.3,47.9z M11.8,41.5h1.9c1,0,1.9-0.9,1.9-2
		c0-1-0.9-1.9-1.9-1.9h-1.9V41.5z"/>
</g>
<g>
	<path class="st1" d="M24.1,47.9c-0.4,0-0.8-0.2-1.1-0.4s-0.4-0.7-0.4-1.1V36.1c0-0.8,0.7-1.5,1.5-1.5h2.6c3.7,0,6.7,3,6.7,6.7
		c0,1.8-0.7,3.4-2,4.7c-1.3,1.3-2.9,1.9-4.7,1.9c0,0,0,0,0,0L24.1,47.9L24.1,47.9z M25.6,37.6v7.3h1.1c0,0,0,0,0,0
		c1,0,1.9-0.4,2.6-1.1c0.7-0.7,1.1-1.6,1.1-2.6c0-2-1.6-3.7-3.7-3.7H25.6z"/>
</g>
<g>
	<path class="st1" d="M38.7,47.9c-0.8,0-1.5-0.7-1.5-1.5V36.1c0-0.8,0.7-1.5,1.5-1.5h6c0.8,0,1.5,0.7,1.5,1.5s-0.7,1.5-1.5,1.5h-4.5
		v8.8C40.2,47.2,39.5,47.9,38.7,47.9z"/>
</g>
<g>
	<path class="st1" d="M43.8,43.6h-5.2c-0.8,0-1.5-0.7-1.5-1.5s0.7-1.5,1.5-1.5h5.2c0.8,0,1.5,0.7,1.5,1.5S44.7,43.6,43.8,43.6z"/>
</g>
</svg>
