<?xml version="1.0" encoding="utf-8"?>
<!-- Generator: Adobe Illustrator 25.2.3, SVG Export Plug-In . SVG Version: 6.00 Build 0)  -->
<svg version="1.1" id="Layer_1" xmlns="http://www.w3.org/2000/svg" xmlns:xlink="http://www.w3.org/1999/xlink" x="0px" y="0px"
	 viewBox="0 0 60 77.9" style="enable-background:new 0 0 60 77.9;" xml:space="preserve">
<g transform="translate(-930 -960)">
	<g transform="translate(930 960)">
		<g>
			<path d="M30,54c-10.6,0-19.3-8.7-19.3-19.3v-9.4C10.7,14.7,19.4,6,30,6s19.3,8.7,19.3,19.3v9.4C49.3,45.3,40.6,54,30,54z M30,9
				c-9,0-16.3,7.3-16.3,16.3v9.4C13.7,43.7,21,51,30,51s16.3-7.3,16.3-16.3v-9.4C46.3,16.3,39,9,30,9z"/>
		</g>
		<g>
			<path d="M30,27.7c-0.8,0-1.5-0.7-1.5-1.5v-9.4c0-0.8,0.7-1.5,1.5-1.5s1.5,0.7,1.5,1.5v9.4C31.5,27.1,30.8,27.7,30,27.7z"/>
		</g>
	</g>
	<g transform="translate(0 -10)">
		<g>
			<path d="M966.8,1039.9l-5.5,7.2c-0.1,0.1-0.1,0.1-0.2,0.2c-0.2,0.1-0.4,0.2-0.6,0.2c-0.3,0-0.6-0.1-0.8-0.4l0,0l-5.5-7.2
				c-0.3-0.4-0.2-1.1,0.2-1.4c0.4-0.3,1.1-0.2,1.4,0.2l4.7,6.1l4.7-6.1c0.3-0.4,1-0.5,1.4-0.2C967,1038.9,967.1,1039.5,966.8,1039.9
				z"/>
		</g>
	</g>
</g>
</svg>
