<?xml version="1.0" encoding="utf-8"?>
<!-- Generator: Adobe Illustrator 25.2.3, SVG Export Plug-In . SVG Version: 6.00 Build 0)  -->
<svg version="1.1" id="Layer_1" xmlns="http://www.w3.org/2000/svg" xmlns:xlink="http://www.w3.org/1999/xlink" x="0px" y="0px"
	 viewBox="0 0 192 192" style="enable-background:new 0 0 192 192;" xml:space="preserve">
<style type="text/css">
	.st0{fill:none;}
</style>
<g>
	<rect y="0" class="st0" width="192" height="192"/>
</g>
<g>
	<path d="M51,156c-3.3,0-6-2.7-6-6s2.7-6,6-6c13.2,0,24-10.8,24-24v-6H30c-6.6,0-12-5.4-12-12V54c0-6.6,5.4-12,12-12h45
		c6.6,0,12,5.4,12,12v66C87,139.9,70.9,156,51,156z M30,54v48h45V54H30z"/>
</g>
<g>
	<path d="M138,156c-3.3,0-6-2.7-6-6s2.7-6,6-6c13.2,0,24-10.8,24-24v-6h-45c-6.6,0-12-5.4-12-12V54c0-6.6,5.4-12,12-12h45
		c6.6,0,12,5.4,12,12v66C174,139.9,157.9,156,138,156z M117,54v48h45V54H117z"/>
</g>
</svg>
